<svg width="312" height="357" viewBox="0 0 312 357" fill="none" xmlns="http://www.w3.org/2000/svg">
<path d="M11.088 355.488C4.26133 353.44 1.70133 349.685 3.408 344.224L129.36 5.79199C131.067 2.03731 133.797 0.159973 137.552 0.159973H144.72C148.475 0.159973 151.205 2.03731 152.912 5.79199L213.84 191.648C214.523 194.037 214.352 196.256 213.328 198.304C212.304 200.352 210.597 201.717 208.208 202.4C207.525 202.4 207.013 202.571 206.672 202.912C206.672 202.912 206.331 202.912 205.648 202.912C201.893 202.912 199.163 200.864 197.456 196.768L140.624 23.712L19.28 350.368C17.5733 353.781 14.8427 355.488 11.088 355.488ZM300.88 355.488C297.125 355.488 294.395 353.781 292.688 350.368L251.728 238.752H138.064C135.333 238.752 133.115 237.899 131.408 236.192C130.043 234.485 129.36 232.437 129.36 230.048C129.36 224.587 132.261 221.856 138.064 221.856H257.872C261.285 221.856 263.845 223.392 265.552 226.464L308.56 344.224C310.267 349.685 308.56 353.269 303.44 354.976L300.88 355.488ZM68.432 328.352C61.6053 326.304 59.0453 322.549 60.752 317.088L131.92 107.168C133.968 103.413 136.699 101.536 140.112 101.536C140.795 101.536 141.307 101.707 141.648 102.048C141.989 102.048 142.331 102.048 142.672 102.048C145.061 102.731 146.768 104.267 147.792 106.656C148.816 108.704 148.987 110.752 148.304 112.8L76.624 322.72C74.9173 326.475 72.1867 328.352 68.432 328.352ZM246.096 327.84C242 327.84 239.44 325.963 238.416 322.208L225.616 283.808H123.728C121.339 283.808 119.291 282.955 117.584 281.248C116.219 279.541 115.536 277.493 115.536 275.104C115.536 269.643 118.267 266.912 123.728 266.912H231.76C235.515 266.912 238.245 268.789 239.952 272.544L254.288 317.088C254.971 319.136 254.8 321.184 253.776 323.232C252.752 325.28 251.045 326.645 248.656 327.328L246.096 327.84ZM244.56 202.4C240.805 202.4 238.075 200.523 236.368 196.768L185.168 39.584C183.461 34.1227 185.168 30.5387 190.288 28.832C190.971 28.4906 191.824 28.32 192.848 28.32C196.944 28.32 199.675 30.1973 201.04 33.952L252.752 191.136C253.435 193.525 253.264 195.744 252.24 197.792C251.216 199.84 249.509 201.205 247.12 201.888L244.56 202.4ZM59.216 356.512C55.4613 355.488 52.9013 353.952 51.536 351.904C50.1707 349.515 49.8293 346.955 50.512 344.224C52.2187 339.787 55.12 337.568 59.216 337.568C59.8987 337.568 60.4107 337.739 60.752 338.08C61.0933 338.08 61.6053 338.08 62.288 338.08C64.6773 339.104 66.384 340.811 67.408 343.2C68.432 345.248 68.6027 347.467 67.92 349.856V350.368C66.2133 354.464 63.312 356.512 59.216 356.512Z" fill="url(#paint0_linear_5_23)"/>
<defs>
<linearGradient id="paint0_linear_5_23" x1="45.8837" y1="54.8081" x2="414.296" y2="204.7" gradientUnits="userSpaceOnUse">
<stop stop-color="#3B82F6"/>
<stop offset="0.927804" stop-color="#10B981"/>
</linearGradient>
</defs>
</svg>
