<svg width="1806" height="361" viewBox="0 0 1806 361" fill="none" xmlns="http://www.w3.org/2000/svg">
<path d="M11.088 359.488C4.26133 357.44 1.70133 353.685 3.408 348.224L129.36 9.79199C131.067 6.03731 133.797 4.15997 137.552 4.15997H144.72C148.475 4.15997 151.205 6.03731 152.912 9.79199L213.84 195.648C214.523 198.037 214.352 200.256 213.328 202.304C212.304 204.352 210.597 205.717 208.208 206.4C207.525 206.4 207.013 206.571 206.672 206.912C206.672 206.912 206.331 206.912 205.648 206.912C201.893 206.912 199.163 204.864 197.456 200.768L140.624 27.712L19.28 354.368C17.5733 357.781 14.8427 359.488 11.088 359.488ZM300.88 359.488C297.125 359.488 294.395 357.781 292.688 354.368L251.728 242.752H138.064C135.333 242.752 133.115 241.899 131.408 240.192C130.043 238.485 129.36 236.437 129.36 234.048C129.36 228.587 132.261 225.856 138.064 225.856H257.872C261.285 225.856 263.845 227.392 265.552 230.464L308.56 348.224C310.267 353.685 308.56 357.269 303.44 358.976L300.88 359.488ZM68.432 332.352C61.6053 330.304 59.0453 326.549 60.752 321.088L131.92 111.168C133.968 107.413 136.699 105.536 140.112 105.536C140.795 105.536 141.307 105.707 141.648 106.048C141.989 106.048 142.331 106.048 142.672 106.048C145.061 106.731 146.768 108.267 147.792 110.656C148.816 112.704 148.987 114.752 148.304 116.8L76.624 326.72C74.9173 330.475 72.1867 332.352 68.432 332.352ZM246.096 331.84C242 331.84 239.44 329.963 238.416 326.208L225.616 287.808H123.728C121.339 287.808 119.291 286.955 117.584 285.248C116.219 283.541 115.536 281.493 115.536 279.104C115.536 273.643 118.267 270.912 123.728 270.912H231.76C235.515 270.912 238.245 272.789 239.952 276.544L254.288 321.088C254.971 323.136 254.8 325.184 253.776 327.232C252.752 329.28 251.045 330.645 248.656 331.328L246.096 331.84ZM244.56 206.4C240.805 206.4 238.075 204.523 236.368 200.768L185.168 43.584C183.461 38.1227 185.168 34.5387 190.288 32.832C190.971 32.4906 191.824 32.32 192.848 32.32C196.944 32.32 199.675 34.1973 201.04 37.952L252.752 195.136C253.435 197.525 253.264 199.744 252.24 201.792C251.216 203.84 249.509 205.205 247.12 205.888L244.56 206.4ZM59.216 360.512C55.4613 359.488 52.9013 357.952 51.536 355.904C50.1707 353.515 49.8293 350.955 50.512 348.224C52.2187 343.787 55.12 341.568 59.216 341.568C59.8987 341.568 60.4107 341.739 60.752 342.08C61.0933 342.08 61.6053 342.08 62.288 342.08C64.6773 343.104 66.384 344.811 67.408 347.2C68.432 349.248 68.6027 351.467 67.92 353.856V354.368C66.2133 358.464 63.312 360.512 59.216 360.512ZM478.336 351.808C478.336 357.269 475.605 360 470.144 360C467.755 360 465.707 359.317 464 357.952C462.293 356.245 461.44 354.197 461.44 351.808V228.416C461.44 225.685 462.293 223.637 464 222.272C465.707 220.565 467.755 219.712 470.144 219.712C475.605 219.712 478.336 222.613 478.336 228.416V351.808ZM507.52 136.256V56.384C507.52 53.9946 508.373 51.9467 510.08 50.24C511.787 48.5333 513.835 47.68 516.224 47.68H610.944C613.675 47.68 615.723 48.5333 617.088 50.24C618.795 51.9467 619.648 53.9946 619.648 56.384C619.648 61.8453 616.747 64.576 610.944 64.576H524.416V136.256C524.416 141.717 521.685 144.448 516.224 144.448C513.835 144.448 511.787 143.765 510.08 142.4C508.373 140.693 507.52 138.645 507.52 136.256ZM430.208 47.68C432.597 47.68 434.475 48.5333 435.84 50.24C437.547 51.9467 438.4 53.9946 438.4 56.384C438.4 61.8453 435.669 64.576 430.208 64.576H367.744C361.941 64.576 359.04 61.8453 359.04 56.384C359.04 53.9946 359.723 51.9467 361.088 50.24C362.795 48.5333 365.013 47.68 367.744 47.68H430.208ZM477.824 11.328V173.12H516.224C518.613 173.12 520.491 173.973 521.856 175.68C523.563 177.387 524.416 179.435 524.416 181.824V312.384C524.416 318.187 521.685 321.088 516.224 321.088C513.835 321.088 511.787 320.405 510.08 319.04C508.373 317.333 507.52 315.115 507.52 312.384V190.016H469.632C467.243 190.016 465.195 189.333 463.488 187.968C461.781 186.261 460.928 184.213 460.928 181.824V19.52H367.744C361.941 19.52 359.04 16.7893 359.04 11.328C359.04 5.52532 361.941 2.62399 367.744 2.62399H469.632C475.093 2.62399 477.824 5.52532 477.824 11.328ZM516.224 2.62399H582.784C588.245 2.62399 590.976 5.52532 590.976 11.328C590.976 16.7893 588.245 19.52 582.784 19.52H516.224C513.835 19.52 511.787 18.8373 510.08 17.472C508.373 15.7653 507.52 13.7173 507.52 11.328C507.52 8.59732 508.373 6.54933 510.08 5.18399C511.787 3.47733 513.835 2.62399 516.224 2.62399ZM614.016 2.11197C616.747 2.79465 618.624 4.33065 619.648 6.71997C620.672 9.10931 620.843 11.4986 620.16 13.888H619.648C618.624 18.3253 615.723 20.544 610.944 20.544C607.189 19.1786 604.629 17.472 603.264 15.424C601.899 13.0347 601.557 10.6453 602.24 8.25598L602.752 7.74399C603.776 3.64798 606.677 1.59998 611.456 1.59998C612.821 1.59998 613.675 1.77064 614.016 2.11197ZM786.836 351.808C786.836 357.269 784.105 360 778.644 360C776.255 360 774.207 359.317 772.5 357.952C770.793 356.245 769.94 354.197 769.94 351.808V228.416C769.94 225.685 770.793 223.637 772.5 222.272C774.207 220.565 776.255 219.712 778.644 219.712C784.105 219.712 786.836 222.613 786.836 228.416V351.808ZM816.02 136.256V56.384C816.02 53.9946 816.873 51.9467 818.58 50.24C820.287 48.5333 822.335 47.68 824.724 47.68H919.444C922.175 47.68 924.223 48.5333 925.588 50.24C927.295 51.9467 928.148 53.9946 928.148 56.384C928.148 61.8453 925.247 64.576 919.444 64.576H832.916V136.256C832.916 141.717 830.185 144.448 824.724 144.448C822.335 144.448 820.287 143.765 818.58 142.4C816.873 140.693 816.02 138.645 816.02 136.256ZM738.708 47.68C741.097 47.68 742.975 48.5333 744.34 50.24C746.047 51.9467 746.9 53.9946 746.9 56.384C746.9 61.8453 744.169 64.576 738.708 64.576H676.244C670.441 64.576 667.54 61.8453 667.54 56.384C667.54 53.9946 668.223 51.9467 669.588 50.24C671.295 48.5333 673.513 47.68 676.244 47.68H738.708ZM786.324 11.328V173.12H824.724C827.113 173.12 828.991 173.973 830.356 175.68C832.063 177.387 832.916 179.435 832.916 181.824V312.384C832.916 318.187 830.185 321.088 824.724 321.088C822.335 321.088 820.287 320.405 818.58 319.04C816.873 317.333 816.02 315.115 816.02 312.384V190.016H778.132C775.743 190.016 773.695 189.333 771.988 187.968C770.281 186.261 769.428 184.213 769.428 181.824V19.52H676.244C670.441 19.52 667.54 16.7893 667.54 11.328C667.54 5.52532 670.441 2.62399 676.244 2.62399H778.132C783.593 2.62399 786.324 5.52532 786.324 11.328ZM824.724 2.62399H891.284C896.745 2.62399 899.476 5.52532 899.476 11.328C899.476 16.7893 896.745 19.52 891.284 19.52H824.724C822.335 19.52 820.287 18.8373 818.58 17.472C816.873 15.7653 816.02 13.7173 816.02 11.328C816.02 8.59732 816.873 6.54933 818.58 5.18399C820.287 3.47733 822.335 2.62399 824.724 2.62399ZM922.516 2.11197C925.247 2.79465 927.124 4.33065 928.148 6.71997C929.172 9.10931 929.343 11.4986 928.66 13.888H928.148C927.124 18.3253 924.223 20.544 919.444 20.544C915.689 19.1786 913.129 17.472 911.764 15.424C910.399 13.0347 910.057 10.6453 910.74 8.25598L911.252 7.74399C912.276 3.64798 915.177 1.59998 919.956 1.59998C921.321 1.59998 922.175 1.77064 922.516 2.11197ZM978.088 359.488C971.261 357.44 968.701 353.685 970.408 348.224L1096.36 9.79199C1098.07 6.03731 1100.8 4.15997 1104.55 4.15997H1111.72C1115.47 4.15997 1118.21 6.03731 1119.91 9.79199L1180.84 195.648C1181.52 198.037 1181.35 200.256 1180.33 202.304C1179.3 204.352 1177.6 205.717 1175.21 206.4C1174.53 206.4 1174.01 206.571 1173.67 206.912C1173.67 206.912 1173.33 206.912 1172.65 206.912C1168.89 206.912 1166.16 204.864 1164.46 200.768L1107.62 27.712L986.28 354.368C984.573 357.781 981.843 359.488 978.088 359.488ZM1267.88 359.488C1264.13 359.488 1261.39 357.781 1259.69 354.368L1218.73 242.752H1105.06C1102.33 242.752 1100.11 241.899 1098.41 240.192C1097.04 238.485 1096.36 236.437 1096.36 234.048C1096.36 228.587 1099.26 225.856 1105.06 225.856H1224.87C1228.29 225.856 1230.85 227.392 1232.55 230.464L1275.56 348.224C1277.27 353.685 1275.56 357.269 1270.44 358.976L1267.88 359.488ZM1035.43 332.352C1028.61 330.304 1026.05 326.549 1027.75 321.088L1098.92 111.168C1100.97 107.413 1103.7 105.536 1107.11 105.536C1107.79 105.536 1108.31 105.707 1108.65 106.048C1108.99 106.048 1109.33 106.048 1109.67 106.048C1112.06 106.731 1113.77 108.267 1114.79 110.656C1115.82 112.704 1115.99 114.752 1115.3 116.8L1043.62 326.72C1041.92 330.475 1039.19 332.352 1035.43 332.352ZM1213.1 331.84C1209 331.84 1206.44 329.963 1205.42 326.208L1192.62 287.808H1090.73C1088.34 287.808 1086.29 286.955 1084.58 285.248C1083.22 283.541 1082.54 281.493 1082.54 279.104C1082.54 273.643 1085.27 270.912 1090.73 270.912H1198.76C1202.51 270.912 1205.25 272.789 1206.95 276.544L1221.29 321.088C1221.97 323.136 1221.8 325.184 1220.78 327.232C1219.75 329.28 1218.05 330.645 1215.66 331.328L1213.1 331.84ZM1211.56 206.4C1207.81 206.4 1205.07 204.523 1203.37 200.768L1152.17 43.584C1150.46 38.1227 1152.17 34.5387 1157.29 32.832C1157.97 32.4906 1158.82 32.32 1159.85 32.32C1163.94 32.32 1166.67 34.1973 1168.04 37.952L1219.75 195.136C1220.43 197.525 1220.26 199.744 1219.24 201.792C1218.22 203.84 1216.51 205.205 1214.12 205.888L1211.56 206.4ZM1026.22 360.512C1022.46 359.488 1019.9 357.952 1018.54 355.904C1017.17 353.515 1016.83 350.955 1017.51 348.224C1019.22 343.787 1022.12 341.568 1026.22 341.568C1026.9 341.568 1027.41 341.739 1027.75 342.08C1028.09 342.08 1028.61 342.08 1029.29 342.08C1031.68 343.104 1033.38 344.811 1034.41 347.2C1035.43 349.248 1035.6 351.467 1034.92 353.856V354.368C1033.21 358.464 1030.31 360.512 1026.22 360.512ZM1382.87 165.44C1377.41 165.44 1374.68 162.709 1374.68 157.248V92.736C1374.68 90.3466 1375.36 88.2986 1376.73 86.592C1378.43 84.8853 1380.48 84.032 1382.87 84.032C1385.26 84.032 1387.31 84.8853 1389.02 86.592C1390.72 88.2986 1391.58 90.3466 1391.58 92.736V148.544H1523.16C1525.55 148.544 1527.43 149.397 1528.79 151.104C1530.5 152.811 1531.35 154.859 1531.35 157.248C1531.35 162.709 1528.62 165.44 1523.16 165.44H1382.87ZM1381.85 16.96C1376.39 16.96 1373.66 14.0587 1373.66 8.25598C1373.66 2.79466 1376.39 0.0639954 1381.85 0.0639954H1526.23C1528.62 0.0639954 1530.67 0.917328 1532.38 2.62399C1534.08 3.98933 1534.94 5.86666 1534.94 8.25598C1534.94 10.9867 1534.08 13.2053 1532.38 14.912C1530.67 16.2773 1528.62 16.96 1526.23 16.96H1381.85ZM1374.68 351.296V202.304C1374.68 199.573 1375.36 197.525 1376.73 196.16C1379.12 194.453 1381.17 193.6 1382.87 193.6H1501.14C1503.53 193.6 1505.58 194.453 1507.29 196.16C1508.99 197.525 1509.85 199.573 1509.85 202.304C1509.85 204.693 1508.99 206.741 1507.29 208.448C1505.58 209.813 1503.53 210.496 1501.14 210.496H1391.58V351.296C1391.58 353.685 1390.72 355.733 1389.02 357.44C1387.31 358.805 1385.26 359.488 1382.87 359.488C1377.41 359.488 1374.68 356.757 1374.68 351.296ZM1336.79 359.488C1331.33 359.488 1328.6 356.757 1328.6 351.296V53.824C1328.6 48.3627 1331.33 45.632 1336.79 45.632H1497.56C1503.36 45.632 1506.26 48.3627 1506.26 53.824C1506.26 56.2133 1505.41 58.2613 1503.7 59.968C1502.34 61.6747 1500.29 62.528 1497.56 62.528H1345.5V351.296C1345.5 353.685 1344.64 355.733 1342.94 357.44C1341.23 358.805 1339.18 359.488 1336.79 359.488ZM1529.3 45.12C1531.69 45.8027 1533.4 47.3387 1534.42 49.728C1535.79 51.776 1535.96 54.1653 1534.94 56.896C1533.91 60.992 1531.01 63.04 1526.23 63.04C1522.48 62.016 1519.92 60.48 1518.55 58.432C1517.19 56.0427 1516.85 53.6533 1517.53 51.264V50.752C1519.23 46.656 1522.14 44.608 1526.23 44.608C1527.6 44.608 1528.62 44.7786 1529.3 45.12ZM1645.99 322.624V190.016H1607.59C1602.13 190.016 1599.4 187.285 1599.4 181.824V10.304C1599.4 7.91464 1600.08 5.86664 1601.45 4.15997C1603.15 2.45331 1605.2 1.59998 1607.59 1.59998C1609.98 1.59998 1612.03 2.45331 1613.74 4.15997C1615.44 5.86664 1616.3 7.91464 1616.3 10.304V173.12H1654.18C1656.57 173.12 1658.62 173.973 1660.33 175.68C1662.03 177.387 1662.89 179.435 1662.89 181.824V322.624C1662.89 325.013 1662.03 327.061 1660.33 328.768C1658.62 330.133 1656.57 330.816 1654.18 330.816C1648.72 330.816 1645.99 328.085 1645.99 322.624ZM1599.91 227.904C1599.91 222.443 1602.64 219.712 1608.1 219.712C1613.91 219.712 1616.81 222.443 1616.81 227.904V351.808C1616.81 357.269 1613.91 360 1608.1 360C1602.64 360 1599.91 357.269 1599.91 351.808V227.904ZM1662.89 136.256C1662.89 138.645 1662.03 140.693 1660.33 142.4C1658.62 143.765 1656.57 144.448 1654.18 144.448C1648.72 144.448 1645.99 141.717 1645.99 136.256V48.192C1645.99 45.8026 1646.67 43.7546 1648.04 42.048C1649.75 40.3413 1651.79 39.488 1654.18 39.488C1656.57 39.488 1658.62 40.3413 1660.33 42.048C1662.03 43.7546 1662.89 45.8026 1662.89 48.192V136.256ZM1651.11 360C1648.72 359.317 1647.02 357.781 1645.99 355.392C1644.97 353.003 1644.8 350.613 1645.48 348.224V347.712C1647.19 343.616 1650.09 341.568 1654.18 341.568C1654.87 341.568 1655.38 341.739 1655.72 342.08C1656.06 342.08 1656.57 342.08 1657.26 342.08C1659.99 342.763 1661.86 344.299 1662.89 346.688C1663.91 349.077 1663.91 351.467 1662.89 353.856V354.368C1661.86 358.464 1658.96 360.512 1654.18 360.512L1651.11 360ZM1786.99 322.624V190.016H1748.59C1743.13 190.016 1740.4 187.285 1740.4 181.824V10.304C1740.4 7.91464 1741.08 5.86664 1742.45 4.15997C1744.15 2.45331 1746.2 1.59998 1748.59 1.59998C1750.98 1.59998 1753.03 2.45331 1754.74 4.15997C1756.44 5.86664 1757.3 7.91464 1757.3 10.304V173.12H1795.18C1797.57 173.12 1799.62 173.973 1801.33 175.68C1803.03 177.387 1803.89 179.435 1803.89 181.824V322.624C1803.89 325.013 1803.03 327.061 1801.33 328.768C1799.62 330.133 1797.57 330.816 1795.18 330.816C1789.72 330.816 1786.99 328.085 1786.99 322.624ZM1740.91 227.904C1740.91 222.443 1743.64 219.712 1749.1 219.712C1754.91 219.712 1757.81 222.443 1757.81 227.904V351.808C1757.81 357.269 1754.91 360 1749.1 360C1743.64 360 1740.91 357.269 1740.91 351.808V227.904ZM1803.89 136.256C1803.89 138.645 1803.03 140.693 1801.33 142.4C1799.62 143.765 1797.57 144.448 1795.18 144.448C1789.72 144.448 1786.99 141.717 1786.99 136.256V48.192C1786.99 45.8026 1787.67 43.7546 1789.04 42.048C1790.75 40.3413 1792.79 39.488 1795.18 39.488C1797.57 39.488 1799.62 40.3413 1801.33 42.048C1803.03 43.7546 1803.89 45.8026 1803.89 48.192V136.256ZM1792.11 360C1789.72 359.317 1788.02 357.781 1786.99 355.392C1785.97 353.003 1785.8 350.613 1786.48 348.224V347.712C1788.19 343.616 1791.09 341.568 1795.18 341.568C1795.87 341.568 1796.38 341.739 1796.72 342.08C1797.06 342.08 1797.57 342.08 1798.26 342.08C1800.99 342.763 1802.86 344.299 1803.89 346.688C1804.91 349.077 1804.91 351.467 1803.89 353.856V354.368C1802.86 358.464 1799.96 360.512 1795.18 360.512L1792.11 360Z" fill="url(#paint0_linear_5_23)"/>
<defs>
<linearGradient id="paint0_linear_5_23" x1="303.726" y1="58.8081" x2="706.254" y2="927.735" gradientUnits="userSpaceOnUse">
<stop stop-color="#3B82F6"/>
<stop offset="0.927804" stop-color="#10B981"/>
</linearGradient>
</defs>
</svg>
